/* XPM */
static char *_587649816133[] = {
/* columns rows colors chars-per-pixel */
"16 16 161 2 ",
"   c #002E92",
".  c #003496",
"X  c #003596",
"o  c #003797",
"O  c #003996",
"+  c #003898",
"@  c #003C99",
"#  c #003D9A",
"$  c #003E9B",
"%  c #003F9B",
"&  c #00409C",
"*  c #00459C",
"=  c #00449E",
"-  c #00499F",
";  c #0048A0",
":  c #0049A0",
">  c #004AA1",
",  c #004DA2",
"<  c #024CA2",
"1  c #004EA3",
"2  c #034EA3",
"3  c #084BA2",
"4  c #094EA3",
"5  c #0352A3",
"6  c #0651A5",
"7  c #0752A5",
"8  c #0656A7",
"9  c #0851A5",
"0  c #0854A6",
"q  c #0856A7",
"w  c #0A56A7",
"e  c #0A57A7",
"r  c #005AA7",
"t  c #005CA9",
"y  c #0C5AA8",
"u  c #0F5CA9",
"i  c #1259A9",
"p  c #115DAA",
"a  c #125DAA",
"s  c #155CAA",
"d  c #165FAC",
"f  c #185BAB",
"g  c #195CAB",
"h  c #0F64AD",
"j  c #1661AC",
"k  c #1761AC",
"l  c #1267AE",
"z  c #1E67AF",
"x  c #186AB0",
"c  c #1B6AB0",
"v  c #1F68B0",
"b  c #2167AF",
"n  c #2066B0",
"m  c #2467B0",
"M  c #226AB1",
"N  c #2469B0",
"B  c #216CB1",
"V  c #296CB2",
"C  c #2C6DB3",
"Z  c #336EB2",
"A  c #2B70B4",
"S  c #2A71B4",
"D  c #2A73B5",
"F  c #2C74B5",
"G  c #3471B6",
"H  c #3C76B8",
"J  c #3D77B8",
"K  c #3279B8",
"L  c #3A7AB9",
"P  c #3A7DBA",
"I  c #3D7CBB",
"U  c #4877B9",
"Y  c #4178B9",
"T  c #537DBC",
"R  c #3F83BD",
"E  c #4382BE",
"W  c #5286C0",
"Q  c #5189C2",
"!  c #538AC2",
"~  c #5290C4",
"^  c #5591C5",
"/  c #5A91C5",
"(  c #5F92C6",
")  c #6593C7",
"_  c #6694C7",
"`  c #6596C7",
"'  c #6397C8",
"]  c #6C97C8",
"[  c #6E9ACB",
"{  c #729DCC",
"}  c #759ECD",
"|  c #769FCD",
" . c #6FA3CE",
".. c #77A6D1",
"X. c #7CA3D0",
"o. c #7DA4D0",
"O. c #77AAD2",
"+. c #7BABD2",
"@. c #7DAAD2",
"#. c #7EADD3",
"$. c #86AAD3",
"%. c #87AFD5",
"&. c #8BADD4",
"*. c #8CAFD6",
"=. c #87B0D5",
"-. c #89B3D7",
";. c #8CB2D6",
":. c #8EB3D7",
">. c #8CB5D8",
",. c #8EB9DA",
"<. c #96B5D9",
"1. c #94B6D8",
"2. c #96B6D9",
"3. c #95B9DA",
"4. c #97BDDC",
"5. c #99B8DB",
"6. c #9AB8DB",
"7. c #A2C5E0",
"8. c #ABC6E1",
"9. c #ACC5E1",
"0. c #A5C8E1",
"q. c #ADCDE4",
"w. c #B9CDE5",
"e. c #B9D2E7",
"r. c #BAD2E7",
"t. c #BFD2E7",
"y. c #B6D4E8",
"u. c #BCD4E8",
"i. c #BED5E9",
"p. c #BFD6E9",
"a. c #C4D3E7",
"s. c #C3D4E9",
"d. c #C1D7EA",
"f. c #C7D6EA",
"g. c #C2DAEB",
"h. c #C2DCEC",
"j. c #C4DDED",
"k. c #C7DEED",
"l. c #CBD9EB",
"z. c #CDDAEC",
"x. c #CEDBED",
"c. c #CEDCED",
"v. c #D1DDED",
"b. c #D5DFEF",
"n. c #CBE0EE",
"m. c #CCE3EF",
"M. c #D3E1F0",
"N. c #D4E1F0",
"B. c #D5E1F0",
"V. c #D5E6F1",
"C. c #D9E7F2",
"Z. c #DDEBF4",
"A. c #E5F1F7",
"S. c #E6F2F8",
"D. c #E8F1F8",
"F. c #F1F7FB",
"G. c #F7F9FC",
"H. c #F6FAFC",
"J. c #F8FBFD",
"K. c white",
"L. c None",
/* pixels */
"L.L.L.L.L.y A R R F u L.L.L.L.L.",
"L.L.L.5 / e.H.K.K.J.i.' e L.L.L.",
"L.L.h 7.K.K.K.K.K.K.K.K.q.x L.L.",
"L.A y.K.K.K.K.K.K.K.K.K.K.j.I L.",
"L.O.K.K.K.K.K.K.K.K.K.K.K.K.,.L.",
"L m.+.C.K.K.#.i.e.` i.4.;.&.h.! ",
"..g.O F.K.K.* l P 3.-.B K A D.@.",
"=.i.r ;.]  .- ~ ^ d.>.Z N t H.%.",
"! K.Z.8.1.0.n.K.S.V.j.s.s.A.K.( ",
"d 1.x.c.B.v.b.w.f.d.l.b.M.l.<.b ",
"C X > $ X > o $ X   X . & > X V ",
"L.2 4 G X.U ) ) } 6.} { J 3 2 L.",
"L.W $ H &.T X.{ $.9.} <.Y @ E L.",
"L.L.M & 0 n 0 s 6 > 2 2 > c L.L.",
"L.L.L.M 8 0 i f f i w w b L.L.L.",
"L.L.L.L.L.M k p p k z L.L.L.L.L."
};
