/* XPM */
static char *_587649711075[] = {
/* columns rows colors chars-per-pixel */
"32 32 112 2 ",
"   c #001784",
".  c #001D87",
"X  c #001F88",
"o  c #00248B",
"O  c #003393",
"+  c #003B97",
"@  c #003E9A",
"#  c #00449D",
"$  c #00499E",
"%  c #0047A0",
"&  c #014CA2",
"*  c #104EA3",
"=  c #0354A5",
"-  c #0954A6",
";  c #0458A7",
":  c #0958A7",
">  c #0E57A8",
",  c #045BA9",
"<  c #0C5CA9",
"1  c #1052A3",
"2  c #165CAB",
"3  c #1A5DAB",
"4  c #385FAC",
"5  c #0360AB",
"6  c #0A62AB",
"7  c #0D68AE",
"8  c #1265AD",
"9  c #1B63AD",
"0  c #1268AF",
"q  c #166AB1",
"w  c #1C6BB1",
"e  c #2164AE",
"r  c #2A68AF",
"t  c #2567B0",
"y  c #246BB1",
"u  c #2C6EB3",
"i  c #346DB4",
"p  c #2272B4",
"a  c #2A76B7",
"s  c #2D7CBA",
"d  c #3474B6",
"f  c #3B72B6",
"g  c #3477B8",
"h  c #3C77B8",
"j  c #327DBA",
"k  c #3F79B9",
"l  c #4D77B7",
"z  c #447BBA",
"x  c #4A7FBB",
"c  c #577BBB",
"v  c #3C82BD",
"b  c #4382BD",
"n  c #4B81BD",
"m  c #5084BF",
"M  c #4687C0",
"N  c #4E84C0",
"B  c #4C8EC3",
"V  c #5585C0",
"C  c #518EC3",
"Z  c #5C8DC4",
"A  c #5593C6",
"S  c #5B92C5",
"D  c #589AC9",
"F  c #6292C6",
"G  c #6594C8",
"H  c #6A97C9",
"J  c #639ACA",
"K  c #6C9ACA",
"L  c #749DCD",
"P  c #7D9ECD",
"I  c #67A2CE",
"U  c #6CA3CE",
"Y  c #70A2CE",
"T  c #79A3CF",
"R  c #7AA3D0",
"E  c #76A9D1",
"W  c #79A8D1",
"Q  c #82ACD3",
"!  c #89AAD3",
"~  c #86B1D6",
"^  c #8AB2D6",
"/  c #9BB3D7",
"(  c #95B4D8",
")  c #92B9DA",
"_  c #9DBEDE",
"`  c #9EC1DE",
"'  c #A4C2DF",
"]  c #A9C0DF",
"[  c #9CC7E2",
"{  c #AAC6E1",
"}  c #B5CCE5",
"|  c #B5D1E6",
" . c #B2D5E9",
".. c #BDD5E9",
"X. c #BFDBEC",
"o. c #C2D5E9",
"O. c #C5DAEB",
"+. c #CBDBEC",
"@. c #D0DFEF",
"#. c #D0E0EF",
"$. c #D7E5F2",
"%. c #DAE5F2",
"&. c #D7ECF5",
"*. c #DCE9F3",
"=. c #E0E7F2",
"-. c #E3EDF6",
";. c #E8F0F7",
":. c #ECF4F9",
">. c #F3F7FB",
",. c #F6F9FC",
"<. c #FFFFFF",
"1. c None",
/* pixels */
"1.1.1.1.1.1.1.1.1.1.1.1.< $ # @ # # $ , 1.1.1.1.1.1.1.1.1.1.1.1.",
"1.1.1.1.1.1.1.1.1.< # # 6 v J E T J v 0 $ # = 1.1.1.1.1.1.1.1.1.",
"1.1.1.1.1.1.1.2 O < K o.,.<.<.<.<.<.<.<.+.T 9 + 9 1.1.1.1.1.1.1.",
"1.1.1.1.1.1.# & Q >.<.<.<.<.<.<.<.<.<.<.<.<.<.( = # 1.1.1.1.1.1.",
"1.1.1.1.1.O a %.<.<.<.<.<.<.<.<.<.<.<.<.<.<.<.<.:.b O 1.1.1.1.1.",
"1.1.1.1.O n <.<.<.<.<.<.<.<.<.<.<.<.<.<.<.<.<.<.<.<.H O 1.1.1.1.",
"1.1.1.# d <.<.<.<.<.<.<.<.<.<.<.<.<.<.<.<.<.<.<.<.<.<.S # 1.1.1.",
"1.1.9 = <.<.<.<.<.<.<.<.<.<.<.<.<.<.<.<.<.<.<.<.<.<.<.<.0 e 1.1.",
"1.1.+ O.<.<.<.<.<.<.<.<.<.<.<.<.<.<.<.<.<.<.<.<.<.<.<.<.-.$ 1.1.",
"1.: v <.<.<.<.<.<.<.<.<.<.<.<.<.<.<.<.<.<.<.<.<.<.<.<.<.<.D & 1.",
"1.# ..<.-.=.:.<.<.<.<.<.>.%.$.,.<.<.&.+.+.<.<.$.-.;.-.-.:.-.= 1.",
"1.7 <.-.= # { <.<.<.<.<.J O , <.-.d O $ o.' r w # $ $ o U <.s 1.",
"= B <.| O $ O.<.<.<.<.<.v o j o.w o $ O.;.o b | ^ T ~ / +.<.I ; ",
"$ E <.( O 5 <.<.<.<.<.<.p $ = B W f :.<.o.O p Y v y x [ <.<.[ & ",
"$ _ <.D O A :.<.<.<.<.,.5 $ a J { U ..<.<.&.! T I U w   ` <.o.& ",
"# ] <.U X S W y < 0 8 b = . ` $.= a 0 O.| l A B A A ; O +.<.o.% ",
"@ ( <.>.K n v 2 q q 8 S B f ..<._ z ~ ~ R - 8 0 8 8 z  .<.<.} # ",
"# K <.<.<.<.<.<.<.<.<.<.<.<.<.<.<.<.<.<.<.<.<.<.<.<.<.<.<.<.( @ ",
"> 2 :.<.<.<.<.<.<.<.<.<.<.<.<.<.<.<.<.<.<.<.<.<.<.<.<.<.<.<.i - ",
"d # y V Z Z Z Z Z Z Z Z F Z Z F F Z S Z Z Z Z Z Z Z Z Z Z i # d ",
"1.= - # % # # % # # # % # # # # # # # # # # % # # # # # # & = 1.",
"1.< > 2 2 2 2 2 - % & % 2 > % & = 1 > & & > 9 & > 9 3 2 2 > , 1.",
"1.d & 3 3 3 9 & t F F G 3 > S G x - t e x > % f t 2 2 2 3 & g 1.",
"1.1.= 2 2 2 & N *.F Z V z @.L c ' o.' @.-.@.* +.! @ 2 3 > = 1.1.",
"1.1.N # 3 2 % F <.V z f L <.F 4 { ,.o.<.R P :.<.K # 3 3 # v 1.1.",
"1.1.1.w & 9 2 - z R L R h u T T K 9 h Z u + H K 2 > 3 & 0 1.1.1.",
"1.1.1.1.- - 3 3 & % % % - & % % % - & % - 3 % # > t - = 1.1.1.1.",
"1.1.1.1.1.= - 3 3 2 2 2 2 2 2 3 2 2 2 3 2 2 3 2 3 - = 1.1.1.1.1.",
"1.1.1.1.1.1.8 = 2 3 2 2 3 3 2 2 2 2 2 2 3 2 3 2 - 8 1.1.1.1.1.1.",
"1.1.1.1.1.1.1.y , - 2 3 2 2 2 2 2 3 3 3 3 2 - ; y 1.1.1.1.1.1.1.",
"1.1.1.1.1.1.1.1.1.w < - - 2 2 2 3 2 > = ; < y 1.1.1.1.1.1.1.1.1.",
"1.1.1.1.1.1.1.1.1.1.1.1.w 8 8 < < < 8 y 1.1.1.1.1.1.1.1.1.1.1.1."
};
