/* XPM */
static char *_587649328693[] = {
/* columns rows colors chars-per-pixel */
"64 64 129 2 ",
"   c #00067B",
".  c #000E7F",
"X  c #001585",
"o  c #001C87",
"O  c #001B89",
"+  c #00248C",
"@  c #002B8E",
"#  c #002E90",
"$  c #003494",
"%  c #003996",
"&  c #003798",
"*  c #003E99",
"=  c #00439C",
"-  c #00499F",
";  c #0047A0",
":  c #004CA1",
">  c #0B4EA3",
",  c #0154A4",
"<  c #0A54A6",
"1  c #0059A6",
"2  c #0C5AA7",
"3  c #0D57A8",
"4  c #025DA9",
"5  c #0B5CA9",
"6  c #1353A6",
"7  c #1C56A5",
"8  c #1157A8",
"9  c #1956A8",
"0  c #175DAB",
"q  c #1A5DAB",
"w  c #215CAA",
"e  c #0261AB",
"r  c #0C63AC",
"t  c #1365AD",
"y  c #1B62AD",
"u  c #1368AF",
"i  c #1A68AF",
"p  c #156BB1",
"a  c #1D6BB1",
"s  c #1F70B3",
"d  c #2060AD",
"f  c #2168AF",
"g  c #246CB1",
"h  c #2C6DB2",
"j  c #306DB3",
"k  c #2473B5",
"l  c #2C73B5",
"z  c #2D79B8",
"x  c #3473B6",
"c  c #3A75B6",
"v  c #3F77B8",
"b  c #357CBA",
"n  c #3A7BBA",
"m  c #437CBB",
"M  c #497CBA",
"N  c #4574B5",
"B  c #3B81BC",
"V  c #4485BE",
"C  c #4C83BD",
"Z  c #5083BF",
"A  c #4E85C0",
"S  c #478CC2",
"D  c #4A8BC2",
"F  c #5287C1",
"G  c #548AC2",
"H  c #5C8DC4",
"J  c #5492C5",
"K  c #5C94C6",
"L  c #5E97C8",
"P  c #5D99C9",
"I  c #638DC3",
"U  c #6695C7",
"Y  c #6B94C7",
"T  c #6695C8",
"R  c #6A97C9",
"E  c #649ACA",
"W  c #699DCB",
"Q  c #739CCB",
"!  c #6FA1CE",
"~  c #73A3CE",
"^  c #7AA3CF",
"/  c #72A6D0",
"(  c #7EA5D1",
")  c #76A8D0",
"_  c #7CACD3",
"`  c #83A5CF",
"'  c #81A6D1",
"]  c #84ABD3",
"[  c #8BADD5",
"{  c #84B1D6",
"}  c #8CB4D7",
"|  c #88B7D9",
" . c #92B2D7",
".. c #96B6D9",
"X. c #98B7DA",
"o. c #94BADA",
"O. c #9CBADB",
"+. c #A2BDDD",
"@. c #9EC0DD",
"#. c #A4C1DE",
"$. c #A6C4E0",
"%. c #ACC5E1",
"&. c #ADCBE4",
"*. c #B4CCE4",
"=. c #B9CDE5",
"-. c #B6D0E6",
";. c #BAD1E7",
":. c #BCD5E9",
">. c #C5D6EA",
",. c #C4D9EB",
"<. c #CBDCEC",
"1. c #D0DEEE",
"2. c #C9E0EE",
"3. c #D2E1EF",
"4. c #C9E2F0",
"5. c #D4E3F1",
"6. c #DAE6F2",
"7. c #DDE9F3",
"8. c #DEF2F8",
"9. c #E4EDF6",
"0. c #E9EEF6",
"q. c #E5F0F7",
"w. c #EAF0F7",
"e. c #E6F2F8",
"r. c #EDF3F9",
"t. c #F1F6FA",
"y. c #F6FAFC",
"u. c #FFFFFF",
"i. c None",
/* pixels */
"i.i.i.i.i.i.i.i.i.i.i.i.i.i.i.i.i.i.i.i.i.i.i.i.i.i.g f y r e 4 4 e r i i f i.i.i.i.i.i.i.i.i.i.i.i.i.i.i.i.i.i.i.i.i.i.i.i.i.i.",
"i.i.i.i.i.i.i.i.i.i.i.i.i.i.i.i.i.i.i.i.i.i.f t 4 1 1 1 , 1 , , , , , , 1 1 1 e t f i.i.i.i.i.i.i.i.i.i.i.i.i.i.i.i.i.i.i.i.i.i.",
"i.i.i.i.i.i.i.i.i.i.i.i.i.i.i.i.i.i.i.i.t 1 1 1 , = * = - , 1 4 4 1 , - = = = - 1 1 4 t i.i.i.i.i.i.i.i.i.i.i.i.i.i.i.i.i.i.i.i.",
"i.i.i.i.i.i.i.i.i.i.i.i.i.i.i.i.i.l r 1 1 - * - 5 n W o.;.<.7.9.9.7.<.;.o.~ V i - * = , 1 r g i.i.i.i.i.i.i.i.i.i.i.i.i.i.i.i.i.",
"i.i.i.i.i.i.i.i.i.i.i.i.i.i.i.i.r , , = = f Q #.w.u.u.u.u.u.u.u.u.u.u.u.u.u.u.y.>.' x - = - 1 r i.i.i.i.i.i.i.i.i.i.i.i.i.i.i.i.",
"i.i.i.i.i.i.i.i.i.i.i.i.i.i.y 1 , = - C #.u.u.u.u.u.u.u.u.u.u.u.u.u.u.u.u.u.u.u.u.u.u.<.R 2 % - 1 g i.i.i.i.i.i.i.i.i.i.i.i.i.i.",
"i.i.i.i.i.i.i.i.i.i.i.i.i.4 1 = = Z <.u.u.u.u.u.u.u.u.u.u.u.u.u.u.u.u.u.u.u.u.u.u.u.u.u.u.0.^ , % : 4 i.i.i.i.i.i.i.i.i.i.i.i.i.",
"i.i.i.i.i.i.i.i.i.i.i.c 1 - % x ;.u.u.u.u.u.u.u.u.u.u.u.u.u.u.u.u.u.u.u.u.u.u.u.u.u.u.u.u.u.u.9.H = = , c i.i.i.i.i.i.i.i.i.i.i.",
"i.i.i.i.i.i.i.i.i.i.f 1 = = ' u.u.u.u.u.u.u.u.u.u.u.u.u.u.u.u.u.u.u.u.u.u.u.u.u.u.u.u.u.u.u.u.u.u.#.0 % 1 a i.i.i.i.i.i.i.i.i.i.",
"i.i.i.i.i.i.i.i.i.i , * 0 :.u.u.u.u.u.u.u.u.u.u.u.u.u.u.u.u.u.u.u.u.u.u.u.u.u.u.u.u.u.u.u.u.u.u.u.u.r.m $ : i i.i.i.i.i.i.i.i.i.",
"i.i.i.i.i.i.i.i.x : % h q.u.u.u.u.u.u.u.u.u.u.u.u.u.u.u.u.u.u.u.u.u.u.u.u.u.u.u.u.u.u.u.u.u.u.u.u.u.u.u.U % = l i.i.i.i.i.i.i.i.",
"i.i.i.i.i.i.i.F - % c u.u.u.u.u.u.u.u.u.u.u.u.u.u.u.u.u.u.u.u.u.u.u.u.u.u.u.u.u.u.u.u.u.u.u.u.u.u.u.u.u.u.^ % = J i.i.i.i.i.i.i.",
"i.i.i.i.i.i.i.- % l u.u.u.u.u.u.u.u.u.u.u.u.u.u.u.u.u.u.u.u.u.u.u.u.u.u.u.u.u.u.u.u.u.u.u.u.u.u.u.u.u.u.u.u.~ $ = i.i.i.i.i.i.i.",
"i.i.i.i.i.i.1 % 0 y.u.u.u.u.u.u.u.u.u.u.u.u.u.u.u.u.u.u.u.u.u.u.u.u.u.u.u.u.u.u.u.u.u.u.u.u.u.u.u.u.u.u.u.u.u.G @ , i.i.i.i.i.i.",
"i.i.i.i.i.i = - 3.u.u.u.u.u.u.u.u.u.u.u.u.u.u.u.u.u.u.u.u.u.u.u.u.u.u.u.u.u.u.u.u.u.u.u.u.u.u.u.u.u.u.u.u.u.u.u.k @ k i.i.i.i.i.",
"i.i.i.i.i.- % o.u.u.u.u.u.u.u.u.u.u.u.u.u.u.u.u.u.u.u.u.u.u.u.u.u.u.u.u.u.u.u.u.u.u.u.u.u.u.u.u.u.u.u.u.u.u.u.u.7.- % i.i.i.i.i.",
"i.i.i.i.r $ b u.u.u.u.u.u.u.u.u.u.u.u.u.u.u.u.u.u.u.u.u.u.u.u.u.u.u.u.u.u.u.u.u.u.u.u.u.u.u.u.u.u.u.u.u.u.u.u.u.u.} # 4 i.i.i.i.",
"i.i.i.C = - 7.u.u.u.u.u.u.u.u.u.u.u.u.u.u.u.u.u.u.u.u.u.u.u.u.u.u.u.u.u.u.u.u.u.u.u.u.u.u.u.u.u.u.u.u.u.u.u.u.u.u.u.s $ m i.i.i.",
"i.i.i.e $ P u.u.u.u.u.u.u.u.u.u.u.u.u.u.u.u.u.u.u.u.u.u.u.u.u.u.u.u.u.u.u.u.u.u.u.u.u.u.u.u.u.u.u.u.u.u.u.u.u.u.u.u.-.% 4 i.i.i.",
"i.i.i.- : 9.u.u.u.u.u.u.u.u.u.u.u.u.u.u.u.u.u.u.u.u.u.u.u.u.u.u.u.u.u.u.u.u.u.u.u.u.u.u.u.u.u.u.u.u.u.u.u.u.u.u.u.u.u.k % i.i.i.",
"i.i.t $ S u.u.u.u.u.u.u.u.u.u.u.u.u.u.u.u.u.u.u.u.u.u.u.u.u.u.u.u.u.u.u.u.u.u.u.u.u.u.u.u.u.u.u.u.u.u.u.u.u.u.u.u.u.u.@.$ u i.i.",
"i.i., = -.u.u.u.3.3.3.1.6.u.u.u.u.u.u.u.u.u.u.u.u.3.>.<.<.>.r.u.u.u.u.q.>.<.,.2.*.;.u.u.u.u.0.6.6.6.6.6.6.6.6.6.3.t.u.y.4 - i.i.",
"i.n = r u.u.u.,.= , , % V u.u.u.u.u.u.u.u.u.u.u.3.- - , - = <.u.u.u.#.> = , , $ - #.u.*.Z i , , 1 1 1 1 1 1 1 , : <.u.u.J $ x i.",
"i.u % J u.u.u.#.* 1 1 $ W u.u.u.u.u.u.u.u.u.u.u.#.= , 1 - e t.u.u.~ = - e 1 $ 0 3.u._ $ # = u - * - = = = = = % : y.u.u.#.$ p i.",
"i.1 * o.u.u.u.] * 4 4 = o.u.u.u.u.u.u.u.u.u.u.u. .= 1 4 - k u.y.N $ 1 e e $ x r.u.<.= - , o.7.#.f k l k k s i q V u.u.u.7., 1 i.",
"i., - <.u.u.u.E = 4 1 - *.u.u.u.u.u.u.u.u.u.u.u.! = 4 4 = ) 7.: # - e 1 $ C u.u.u.E % = P u.$ ,.u.u.u.u.u.u.u.u.u.u.u.u.u.p = i.",
"x - e w.u.u.u.B = 4 1 , 3.u.u.u.u.u.u.u.u.u.u.u.C = 4 4 , V e U 8.~ - - R u.u.u.u.K $ , x y.+.9.Q C V C C W +.u.u.u.u.u.u.V % x ",
"g - a u.u.u.u.s - e - : y.u.u.u.u.u.u.u.u.u.u.u.z - 4 4 e # W 8.N u.2 V u.u.u.u.u.<.= % = B #.V # * = = = = $ f 9.u.u.u.u.E % a ",
"a = b u.u.u.0.4 , 4 = } u.u.u.u.u.u.u.u.u.u.u.y.r , 4 4 r 1 Z 7.M u.z 7 u.u.u.u.u.u.;.c 2 % # = , , , , - 1 e @ E u.u.u.u.` $ p ",
"r = M u.u.u.>.: 1 = { <.c u.u.u.u.u.u.u.u.u.u.7., 1 4 1 4 3.b C <.5.3.+ j u.u.u.u.u.u.u.u.u.y.y.y.y.y.y.1.r , = B u.u.u.u.[ * r ",
"4 - M u.u.u.,.- 1 % ,.*.q u.` Z J K K K K K ^ O.1 1 4 , 4 u.u., + = :.2.. C u.u.u.#. .#.#.:.=.=.;.;.;.=.o.5 1 $ W u.u.u.u.[ * 4 ",
"4 - M u.u.u.y.r % , i 3.r.E # = = = * = = $ r _ , 4 4 - s u.u.r.y # - e.&.. U u.u.- $ = = = = = = = = = = 4 = : 7.u.u.u.u.' * 4 ",
"4 : j u.u.u.u.,.q = # $ - @ = * * = * = * @ B L + = * o k u.u.u.e.t o # 3.~   ~ 5.$ % * = * = * * = * * * = w :.u.u.u.u.u.Q = 1 ",
"4 , d r.u.u.u.u.y.+.~ K G E E E E E E E E H @.*.Q ) ) Q %.u.u.u.u.7.Q I o.u.` E *.R W W W W W W W W W ! [ *.u.u.u.u.u.u.u.G = 4 ",
"r 1 < <.u.u.u.u.u.u.u.u.u.u.u.u.u.u.u.u.u.u.u.u.u.u.u.u.u.u.u.u.u.u.u.u.u.u.u.u.u.u.u.u.u.u.u.u.u.u.u.u.u.u.u.u.u.u.u.u.u.c : r ",
"a , * #.u.u.u.u.u.u.u.u.u.u.u.u.u.u.u.u.u.u.u.u.u.u.u.u.u.u.u.u.u.u.u.u.u.u.u.u.u.u.u.u.u.u.u.u.u.u.u.u.u.u.u.u.u.u.u.u.9.3 : i ",
"a < * K u.u.u.u.u.u.u.u.u.u.u.u.u.u.u.u.u.u.u.u.u.u.u.u.u.u.u.u.u.u.u.u.u.u.u.u.u.u.u.u.u.u.u.u.u.u.u.u.u.u.u.u.u.u.u.u.%.* < g ",
"l 1 0 ; $.u.u.u.u.u.u.u.u.u.u.u.u.u.u.u.u.u.u.u.u.u.u.u.u.u.u.u.u.u.u.u.u.u.u.u.u.u.u.u.u.u.u.u.u.u.u.u.u.u.u.u.u.u.u.7.w > < b ",
"i.1 d < : H  .X.X.....X.X.X.O.O.X.O.O.O.O.O.O.+.O.+.+.O.+.+.+.+.+.+.+.+.+.+.+.O.+.O.O.O.O.O.X.O.X.X.X.X.X...X.......Q 9 ; y , i.",
"i.4 3 q 8 = * = = * = = * ; * ; = = = = = = = = = = = = = ; = = = - = = = = = = ; * ; = = * ; * = = = = = * = * = * ; < y 3 4 i.",
"i.p 1 q 0 0 0 0 0 0 0 0 0 0 0 0 0 0 0 0 0 0 0 0 0 0 0 0 0 0 0 0 0 0 0 0 0 0 0 0 0 0 0 0 0 0 0 0 0 0 0 0 0 0 0 0 0 0 0 0 w , t i.",
"i.b : q 0 0 0 0 0 0 0 0 0 0 0 0 0 0 0 0 0 0 0 0 0 0 0 0 0 0 0 0 0 0 0 0 0 0 0 0 0 0 0 0 0 0 0 0 0 0 0 0 0 0 0 q 0 0 0 q 0 , n i.",
"i.i.1 2 q 0 0 0 0 0 0 0 0 0 0 0 0 0 0 0 0 0 0 0 0 0 0 q 0 0 0 0 0 0 0 0 0 0 0 0 0 0 0 0 0 0 0 0 0 0 0 0 0 0 0 0 0 0 0 q 4 , i.i.",
"i.i.u , w 0 0 0 y 0 0 0 0 0 0 0 0 0 0 0 0 0 0 0 0 0 0 q 0 0 0 0 0 0 0 0 0 0 0 0 0 0 0 0 0 0 0 0 0 0 0 0 0 0 0 0 0 0 0 0 , u i.i.",
"i.i.i.: q 0 0 0 0 0 0 0 0 0 0 0 0 : ; ; ; ; = ; < y 0 : ; ; ; ; ; : 8 q : ; 0 > ; ; 3 0 0 y > ; < y 0 0 0 0 0 0 0 0 q 5 : i.i.i.",
"i.i.i.4 4 q 0 0 0 0 0 0 0 0 y > : j H R T T T Y m > ; g F T T T I j : : m M 3 0 H G 8 * 0 8 h G l 8 0 0 0 q 0 0 0 q 0 1 4 i.i.i.",
"i.i.i.C : q 0 q 0 0 0 0 0 0 3 6 *.u.u.0.t.0.r.y.] # [ u.u.0.t.0.u.u.=.6 <.u.G 3.u.u.9.v * = ..u.O.* 0 q 0 0 0 q q q 4 - M i.i.i.",
"i.i.i.i.1 3 q 0 0 0 0 0 0 0 * ' u.>.9 8 0 0 0 0 * F u.t.j 6 0 9 6 =.u.[ *.u.[ u.=.Y u.u.N O  .u.X.* 0 0 0 0 0 q q 4 1 4 i.i.i.i.",
"i.i.i.i.i.: 0 0 0 0 0 0 0 0 & $.u.[ X $ & & & & O R u.>.+ # & & X Q u.$.$.u.( u.>.@ I u.u.w T u.O.; 0 0 0 0 0 q 0 4 - i.i.i.i.i.",
"i.i.i.i.i.a : q 0 0 0 0 0 0 ; m u.u.;.+.$.+.+.$.+.N <.u.3.O.$.+.=.u.u.c 6.u. .u.y.; $ I u.u.t.u.[ * 0 0 0 0 q 0 4 : i i.i.i.i.i.",
"i.i.i.i.i.i.: < w 0 0 0 0 0 0 : v ..<.<.>.>.<.>.3.x : ' >.<.>.<.<...c ; ' X.A X.( < 8 * m *.3.[ q 8 0 0 0 q q 4 1 , i.i.i.i.i.i.",
"i.i.i.i.i.i.i.- 0 q 0 0 0 0 0 0 ; * = ; = ; = ; ; 8 3 * ; * ; ; = * ; y ; * < ; ; q q 0 ; = ; * 3 q 0 0 0 q 5 1 = i.i.i.i.i.i.i.",
"i.i.i.i.i.i.i.G = 0 q 0 0 0 q 0 0 0 0 0 0 0 0 0 9 0 0 0 0 0 0 0 0 0 0 0 0 0 0 0 0 0 0 0 0 0 0 0 0 0 0 0 q 0 4 - F i.i.i.i.i.i.i.",
"i.i.i.i.i.i.i.i.k : q q 0 0 0 0 0 0 0 0 0 0 0 0 0 0 0 0 0 0 0 0 0 0 0 0 0 0 0 0 0 0 q 0 0 0 0 0 0 0 0 q 0 4 , g i.i.i.i.i.i.i.i.",
"i.i.i.i.i.i.i.i.i.y , 0 q 0 0 0 0 q 0 0 0 0 0 0 0 0 0 0 0 0 0 0 0 0 0 0 0 0 0 0 0 0 0 0 0 0 0 0 0 0 0 q 4 , 0 i.i.i.i.i.i.i.i.i.",
"i.i.i.i.i.i.i.i.i.i.i , 0 y q 0 0 0 0 0 0 0 0 0 0 0 0 0 0 0 0 0 0 0 0 0 0 0 q 0 0 0 0 0 0 0 0 0 0 0 w 5 , i i.i.i.i.i.i.i.i.i.i.",
"i.i.i.i.i.i.i.i.i.i.i.c , 2 q q 0 0 0 0 0 0 0 0 0 0 0 0 0 0 0 0 0 0 0 0 0 q 0 0 0 0 0 q 0 0 0 0 0 q 2 1 c i.i.i.i.i.i.i.i.i.i.i.",
"i.i.i.i.i.i.i.i.i.i.i.i.i.1 1 0 q q 0 0 0 0 0 0 0 0 q 0 q 0 0 0 0 0 0 0 0 0 0 0 0 0 0 0 0 0 0 q q , 1 i.i.i.i.i.i.i.i.i.i.i.i.i.",
"i.i.i.i.i.i.i.i.i.i.i.i.i.i.t , 1 q q q 0 0 0 0 0 0 0 0 0 0 0 0 0 q 0 0 q 0 0 q 0 0 q q 0 q q 8 1 t i.i.i.i.i.i.i.i.i.i.i.i.i.i.",
"i.i.i.i.i.i.i.i.i.i.i.i.i.i.i.i.1 , 4 q w q q 0 y 0 0 0 0 0 0 0 0 0 0 0 0 0 q 0 q q q q 0 2 1 4 i.i.i.i.i.i.i.i.i.i.i.i.i.i.i.i.",
"i.i.i.i.i.i.i.i.i.i.i.i.i.i.i.i.i.x 4 1 4 8 0 0 q q 0 0 q 0 0 0 0 0 0 0 0 q q 0 q 0 5 1 1 4 x i.i.i.i.i.i.i.i.i.i.i.i.i.i.i.i.i.",
"i.i.i.i.i.i.i.i.i.i.i.i.i.i.i.i.i.i.i.i.t 1 1 4 4 0 0 q q q 0 q q q q q 0 0 3 4 1 1 1 r i.i.i.i.i.i.i.i.i.i.i.i.i.i.i.i.i.i.i.i.",
"i.i.i.i.i.i.i.i.i.i.i.i.i.i.i.i.i.i.i.i.i.i.a r 4 1 1 1 1 3 0 q 0 3 4 1 1 1 4 4 t i i.i.i.i.i.i.i.i.i.i.i.i.i.i.i.i.i.i.i.i.i.i.",
"i.i.i.i.i.i.i.i.i.i.i.i.i.i.i.i.i.i.i.i.i.i.i.i.i.i.i p u r 4 4 4 4 4 t u g i.i.i.i.i.i.i.i.i.i.i.i.i.i.i.i.i.i.i.i.i.i.i.i.i.i."
};
